<?xml version="1.0" encoding="utf-8"?>
<!-- Generator: Adobe Illustrator 16.0.3, SVG Export Plug-In . SVG Version: 6.00 Build 0)  -->
<!DOCTYPE svg PUBLIC "-//W3C//DTD SVG 1.1//EN" "http://www.w3.org/Graphics/SVG/1.1/DTD/svg11.dtd">
<svg version="1.1" id="Layer_1" xmlns="http://www.w3.org/2000/svg" xmlns:xlink="http://www.w3.org/1999/xlink" x="0px" y="0px"
	 width="64px" height="64px" viewBox="0 0 64 64" enable-background="new 0 0 64 64" xml:space="preserve">
<linearGradient id="SVGID_1_" gradientUnits="userSpaceOnUse" x1="10" y1="23" x2="54" y2="23">
	<stop  offset="0" style="stop-color:#E49F00"/>
	<stop  offset="1" style="stop-color:#986A00"/>
</linearGradient>
<path fill="none" stroke="url(#SVGID_1_)" stroke-width="2" stroke-miterlimit="10" d="M21,40v5h22l0.001-5.107
	C49,36.195,53,29.564,53,22c0-11.598-9.402-21-21-21c-11.598,0-21,9.402-21,21C11,29.565,14.998,36.305,21,40z"/>
<linearGradient id="SVGID_2_" gradientUnits="userSpaceOnUse" x1="24" y1="35.293" x2="40" y2="35.293">
	<stop  offset="0" style="stop-color:#E49F00"/>
	<stop  offset="1" style="stop-color:#986A00"/>
</linearGradient>
<polygon fill="none" stroke="url(#SVGID_2_)" stroke-width="2" stroke-miterlimit="10" points="28,45 25,25 25,26 29,29 32,26 
	35,29 39,26 39,25 36,45 "/>
<linearGradient id="SVGID_3_" gradientUnits="userSpaceOnUse" x1="20" y1="48" x2="44" y2="48">
	<stop  offset="0" style="stop-color:#E49F00"/>
	<stop  offset="1" style="stop-color:#986A00"/>
</linearGradient>
<rect x="21" y="45" fill="none" stroke="url(#SVGID_3_)" stroke-width="2" stroke-miterlimit="10" width="22" height="6"/>
<linearGradient id="SVGID_4_" gradientUnits="userSpaceOnUse" x1="22" y1="54" x2="42" y2="54">
	<stop  offset="0" style="stop-color:#E49F00"/>
	<stop  offset="1" style="stop-color:#986A00"/>
</linearGradient>
<rect x="23" y="51" fill="none" stroke="url(#SVGID_4_)" stroke-width="2" stroke-miterlimit="10" width="18" height="6"/>
<linearGradient id="SVGID_5_" gradientUnits="userSpaceOnUse" x1="24" y1="60" x2="40" y2="60">
	<stop  offset="0" style="stop-color:#E49F00"/>
	<stop  offset="1" style="stop-color:#986A00"/>
</linearGradient>
<rect x="25" y="57" fill="none" stroke="url(#SVGID_5_)" stroke-width="2" stroke-miterlimit="10" width="14" height="6"/>
</svg>
