<?xml version="1.0" encoding="UTF-8" standalone="no"?>
<!DOCTYPE svg PUBLIC "-//W3C//DTD SVG 1.1//EN" "http://www.w3.org/Graphics/SVG/1.1/DTD/svg11.dtd">
<svg width="100%" height="100%" viewBox="0 0 272 72" version="1.1" xmlns="http://www.w3.org/2000/svg" xmlns:xlink="http://www.w3.org/1999/xlink" xml:space="preserve" xmlns:serif="http://www.serif.com/" style="fill-rule:evenodd;clip-rule:evenodd;stroke-linejoin:round;stroke-miterlimit:1.41421;">
    <g id="Artboard1" transform="matrix(0.68,0,0,0.72,0,0)">
        <rect x="0" y="0" width="400" height="100" style="fill:none;"/>
        <g transform="matrix(2.21098,0,0,1.38377,-22.1098,-20.7565)">
            <path d="M54.667,40C40.236,42.432 24.397,42.179 10,40C11.479,46.693 11.417,53.359 10,60C23.418,58.283 38.105,58.001 51.333,60C53.946,53.711 54.786,46.959 54.667,40Z"/>
        </g>
        <g transform="matrix(2.21098,0,0,1.38377,81.0693,-20.7565)">
            <path d="M52.667,40C39.588,43.026 23.553,42.608 10,40C10.497,47.045 9.525,53.689 7.333,60C26.183,58.224 44.381,57.857 54,60C54.56,53.32 54.169,46.652 52.667,40Z"/>
        </g>
        <g transform="matrix(2.21098,0,0,1.38377,184.248,-20.7565)">
            <path d="M54.667,40C38.95,42.224 22.034,41.883 8.667,40C9.972,46.893 10.332,53.537 10,60C22.899,57.189 38.871,57.007 52.667,60C54.268,54.626 54.964,48 54.667,40Z"/>
        </g>
        <g transform="matrix(2.21098,0,0,1.38377,287.428,-20.7565)">
            <path d="M50,40C36.475,42.168 23.091,42.542 10,40C10.404,47.249 9.692,53.891 8,60C21.451,57.215 35.392,56.918 50,60C51.194,54.138 51.246,47.506 50,40Z"/>
        </g>
        <g transform="matrix(1.34122,-0.57394,0.61136,1.25913,-26.1174,30.4542)">
            <path d="M75,10C72.5,17.517 70,24.038 70,30.054C70,32.825 72.24,35.074 75,35.074C77.76,35.074 80,32.825 80,30.054C80,24.038 74,20.027 75,10Z"/>
        </g>
        <g transform="matrix(-1.34122,0.57394,-0.61136,-1.25913,327.803,69.5458)">
            <path d="M75,10C73.225,15.338 70,24.038 70,30.054C70,32.825 72.24,35.074 75,35.074C77.76,35.074 80,32.825 80,30.054C80,24.038 74.29,17.12 75,10Z"/>
        </g>
        <g transform="matrix(1.12583,-0.481768,0.61136,1.25913,194.348,24.0022)">
            <path d="M75,10C76,20.43 70,24.602 70,30.86C70,33.186 72.24,35.074 75,35.074C77.76,35.074 80,33.186 80,30.86C80,24.602 77.5,18.323 75,10Z"/>
        </g>
        <g transform="matrix(1.03125,0.334872,-0.341347,0.926447,39.5319,-26.0653)">
            <path d="M75,10C72.5,17.287 70,23.877 70,29.824C70,32.722 72.24,35.074 75,35.074C77.76,35.074 80,32.722 80,29.824C80,23.877 74,19.912 75,10Z"/>
        </g>
        <g transform="matrix(-1.03125,-0.334872,0.341347,-0.926447,262.154,126.065)">
            <path d="M75,10C73.099,15.54 70,23.877 70,29.824C70,32.722 72.24,35.074 75,35.074C77.76,35.074 80,32.722 80,29.824C80,23.877 74.24,17.536 75,10Z"/>
        </g>
        <g transform="matrix(1.03125,0.334872,-0.341347,0.926447,244.92,-26.0653)">
            <path d="M75,10C76,19.912 70,23.877 70,29.824C70,32.722 72.24,35.074 75,35.074C77.76,35.074 80,32.722 80,29.824C80,23.877 77.5,17.287 75,10Z"/>
        </g>
    </g>
</svg>
