<?xml version="1.0" encoding="UTF-8" standalone="no"?>
<!DOCTYPE svg PUBLIC "-//W3C//DTD SVG 1.1//EN" "http://www.w3.org/Graphics/SVG/1.1/DTD/svg11.dtd">
<svg width="100%" height="100%" viewBox="0 0 200 200" version="1.1" xmlns="http://www.w3.org/2000/svg" xmlns:xlink="http://www.w3.org/1999/xlink" xml:space="preserve" xmlns:serif="http://www.serif.com/" style="fill-rule:evenodd;clip-rule:evenodd;stroke-linejoin:round;stroke-miterlimit:1.41421;">
    <g id="device_projector_screen_content_chart_presentation_outline_stroke" transform="matrix(7.8802,0,0,7.8802,6.63564,20)">
        <g id="path-1" transform="matrix(1.15364,0,0,1.15364,-0.842065,-4.61456)">
            <path d="M3.353,4C3.353,4 1,4 1,6.286L1,17.714C1,20 3.353,20 3.353,20L18.647,20C18.647,20 21,20 21,17.714L21,6.286C21,4 18.647,4 18.647,4L3.353,4ZM3.2,5C3.2,5 2,5 2,6.167L2,17.833C2,19 3.2,19 3.2,19L18.8,19C18.8,19 20,19 20,17.833L20,6.167C20,5 18.8,5 18.8,5L3.2,5ZM7,17C8.657,17 10,15.657 10,14L7,14L7,11C5.343,11 4,12.343 4,14C4,15.657 5.343,17 7,17ZM0.579,21C0.579,21 0,21 0,21.5C0,22 0.579,22 0.579,22L21.421,22C21.421,22 22,22 22,21.5C22,21 21.421,21 21.421,21L0.579,21ZM12,10L12,11L13,11L13,10L12,10ZM14,10L14,11L18,11L18,10L14,10ZM4,7L4,8L18,8L18,7L4,7ZM12,13L12,14L13,14L13,13L12,13ZM14,13L14,14L18,14L18,13L14,13ZM12,16L12,17L13,17L13,16L12,16ZM14,16L14,17L18,17L18,16L14,16Z" style="fill:white;"/>
        </g>
        <path id="path-11" serif:id="path-1" d="M3.353,4C3.353,4 1,4 1,6.286L1,17.714C1,20 3.353,20 3.353,20L18.647,20C18.647,20 21,20 21,17.714L21,6.286C21,4 18.647,4 18.647,4L3.353,4ZM3.2,5C3.2,5 2,5 2,6.167L2,17.833C2,19 3.2,19 3.2,19L18.8,19C18.8,19 20,19 20,17.833L20,6.167C20,5 18.8,5 18.8,5L3.2,5ZM7,17C8.657,17 10,15.657 10,14L7,14L7,11C5.343,11 4,12.343 4,14C4,15.657 5.343,17 7,17ZM0.579,21C0.579,21 0,21 0,21.5C0,22 0.579,22 0.579,22L21.421,22C21.421,22 22,22 22,21.5C22,21 21.421,21 21.421,21L0.579,21ZM12,10L12,11L13,11L13,10L12,10ZM14,10L14,11L18,11L18,10L14,10ZM4,7L4,8L18,8L18,7L4,7ZM12,13L12,14L13,14L13,13L12,13ZM14,13L14,14L18,14L18,13L14,13ZM12,16L12,17L13,17L13,16L12,16ZM14,16L14,17L18,17L18,16L14,16Z" style="fill:none;"/>
    </g>
</svg>
