<?xml version="1.0" encoding="UTF-8" standalone="no"?>
<!DOCTYPE svg PUBLIC "-//W3C//DTD SVG 1.1//EN" "http://www.w3.org/Graphics/SVG/1.1/DTD/svg11.dtd">
<svg width="100%" height="100%" viewBox="0 0 200 200" version="1.1" xmlns="http://www.w3.org/2000/svg" xmlns:xlink="http://www.w3.org/1999/xlink" xml:space="preserve" xmlns:serif="http://www.serif.com/" style="fill-rule:evenodd;clip-rule:evenodd;stroke-linejoin:round;stroke-miterlimit:1.41421;">
    <g id="device_iPhone_smart-phone_vertical_glyph" transform="matrix(9.07692,0,0,9.07692,40,9.59233e-14)">
        <g id="path-1" transform="matrix(0.801233,0,0,0.801233,2.18981,2.20339)">
            <path d="M0,2.003L0,20.031C0,22.034 2,22.034 2,22.034L9,22.034C9,22.034 11,22.034 11,20.031L11,2.003C11,0 9,0 9,0L2,0C2,0 0,0 0,2.003ZM1,2.5L1,18.5L10,18.5L10,2.5L1,2.5ZM5.5,21.2C6.052,21.2 6.5,20.752 6.5,20.2C6.5,19.648 6.052,19.2 5.5,19.2C4.948,19.2 4.5,19.648 4.5,20.2C4.5,20.752 4.948,21.2 5.5,21.2ZM4.133,1C4.059,1 4,1.097 4,1.221L4,1.28C4,1.402 4.06,1.501 4.133,1.501L6.867,1.501C6.941,1.501 7,1.404 7,1.28L7,1.221C7,1.099 6.94,1 6.867,1L4.133,1Z"/>
        </g>
        <path id="path-11" serif:id="path-1" d="M0,2.003L0,20.031C0,22.034 2,22.034 2,22.034L9,22.034C9,22.034 11,22.034 11,20.031L11,2.003C11,0 9,0 9,0L2,0C2,0 0,0 0,2.003ZM1,2.5L1,18.5L10,18.5L10,2.5L1,2.5ZM5.5,21.2C6.052,21.2 6.5,20.752 6.5,20.2C6.5,19.648 6.052,19.2 5.5,19.2C4.948,19.2 4.5,19.648 4.5,20.2C4.5,20.752 4.948,21.2 5.5,21.2ZM4.133,1C4.059,1 4,1.097 4,1.221L4,1.28C4,1.402 4.06,1.501 4.133,1.501L6.867,1.501C6.941,1.501 7,1.404 7,1.28L7,1.221C7,1.099 6.94,1 6.867,1L4.133,1Z" style="fill:none;"/>
        <g transform="matrix(0.110169,0,0,0.110169,-4.40678,-1.05678e-14)">
            <path d="M200,0L200,200L0,200L0,0L200,0ZM190,10L10,10L10,190L190,190L190,10Z"/>
        </g>
    </g>
</svg>
