<?xml version="1.0" encoding="UTF-8" standalone="no"?><!DOCTYPE svg PUBLIC "-//W3C//DTD SVG 1.1//EN" "http://www.w3.org/Graphics/SVG/1.1/DTD/svg11.dtd"><svg width="100%" height="100%" viewBox="0 0 120 120" version="1.1" xmlns="http://www.w3.org/2000/svg" xmlns:xlink="http://www.w3.org/1999/xlink" xml:space="preserve" xmlns:serif="http://www.serif.com/" style="fill-rule:evenodd;clip-rule:evenodd;stroke-linejoin:round;stroke-miterlimit:1.41421;"><rect id="cms-development" x="0" y="0" width="120" height="120" style="fill:none;"/><clipPath id="_clip1"><rect x="0" y="0" width="120" height="120"/></clipPath><g clip-path="url(#_clip1)"><path id="path3861" d="M0.157,108.014c-0.145,-0.381 -0.2,-22.235 -0.121,-48.565l0.143,-47.873l59.91,-0.141l59.911,-0.141l0,97.412l-59.79,0c-47.322,0 -59.844,-0.145 -60.053,-0.692l0,0Zm115.969,-40.54l0,-37.358l-56.175,0l-56.175,0l0,74.716l112.35,0l0,-37.358Zm-104.601,9.408l0,-1.937l50.363,0l0,3.875l-25.182,0l-25.181,0l0,-1.938Zm57.558,-14.943l0,-16.88l39.295,0l0,33.761l-19.648,0l-19.647,0l0,-16.881Zm35.421,0l0,-13.006l-15.774,0l-15.773,0l0,26.012l31.547,0l0,-13.006Zm-92.979,0l0,-1.937l50.363,0l0,3.874l-25.182,0l-25.181,0l0,-1.937Zm0,-14.943l0,-1.937l50.363,0l0,3.874l-25.182,0l-25.181,0l0,-1.937Zm104.601,-26.288l0,-5.535l-56.175,0l-56.175,0l0,11.069l112.35,0l0,-5.534Zm-104.601,0.276l0,-1.937l7.194,0l0,3.874l-3.597,0l-3.597,0l0,-1.937Zm14.943,0l0,-1.937l7.194,0l0,3.874l-3.597,0l-3.597,0l0,-1.937Zm14.943,0l0,-1.937l7.194,0l0,3.874l-3.597,0l-3.597,0l0,-1.937Z" style="fill:url(#_Linear2);fill-rule:nonzero;"/></g><defs><linearGradient id="_Linear2" x1="0" y1="0" x2="1" y2="0" gradientUnits="userSpaceOnUse" gradientTransform="matrix(5.96473e-15,97.4115,-97.4115,5.96473e-15,60,11.2942)"><stop offset="0" style="stop-color:#e49f00;stop-opacity:1"/><stop offset="1" style="stop-color:#986a00;stop-opacity:1"/></linearGradient></defs></svg>