<?xml version="1.0" encoding="utf-8"?>
<!-- Generator: Adobe Illustrator 16.0.3, SVG Export Plug-In . SVG Version: 6.00 Build 0)  -->
<!DOCTYPE svg PUBLIC "-//W3C//DTD SVG 1.1//EN" "http://www.w3.org/Graphics/SVG/1.1/DTD/svg11.dtd">
<svg version="1.1" id="Layer_1" xmlns="http://www.w3.org/2000/svg" xmlns:xlink="http://www.w3.org/1999/xlink" x="0px" y="0px"
	 width="131.314px" height="47.54px" viewBox="0 0 131.314 47.54" enable-background="new 0 0 131.314 47.54" xml:space="preserve">
<path fill-rule="evenodd" clip-rule="evenodd" fill="#84BC30" d="M17.457,15.396c-0.18-3.341-3.413-6.613-7.36-6.504
	c-4.125,0-7.181,3.019-7.43,6.504H17.457L17.457,15.396z M2.63,17.493c0.145,4.801,4.234,7.111,7.467,7.074
	c2.951,0,5.335-1.457,6.578-3.945h2.737c-0.889,2.061-2.24,3.623-3.875,4.656c-1.6,1.028-3.484,1.563-5.44,1.563
	C3.448,26.842,0,21.544,0,16.782C0,11.163,4.339,6.65,10.063,6.65c2.701,0,5.188,0.959,7.002,2.701
	c2.205,2.135,3.272,5.081,2.985,8.142H2.63z"/>
<path fill-rule="evenodd" clip-rule="evenodd" fill="#84BC30" d="M22.184,7.183h2.489c0,1.067,0,2.135-0.034,3.412
	c1.102-2.486,3.696-4.018,7.109-3.944c5.938,0.07,8.033,4.122,8.033,8.778v10.878h-2.592V15.964c0-4.124-1.85-6.936-6.152-6.861
	c-3.946,0.034-6.221,2.417-6.221,6.397v10.807h-2.631V7.183z"/>
<polygon fill-rule="evenodd" clip-rule="evenodd" fill="#84BC30" points="50.266,26.307 47.531,26.307 39.996,7.183 42.77,7.183 
	48.918,23.073 55.034,7.183 57.806,7.183 "/>
<path fill-rule="evenodd" clip-rule="evenodd" fill="#84BC30" d="M60.264,2.012c0.269-0.268,2.079-0.764,2.079-0.764
	s-0.179,2.516-0.551,2.892c-0.271,0.269-2.079,0.77-2.079,0.77S59.889,2.392,60.264,2.012z"/>
<rect x="59.593" y="7.183" fill-rule="evenodd" clip-rule="evenodd" fill="#84BC30" width="2.629" height="19.124"/>
<polygon fill-rule="evenodd" clip-rule="evenodd" fill="#84BC30" points="74.248,26.307 71.51,26.307 63.972,7.183 66.747,7.183 
	72.895,23.073 79.01,7.183 81.785,7.183 "/>
<path fill-rule="evenodd" clip-rule="evenodd" fill="#84BC30" d="M98.682,15.396c-0.18-3.341-3.412-6.613-7.359-6.504
	c-4.127,0-7.184,3.019-7.434,6.504H98.682L98.682,15.396z M83.856,17.493c0.141,4.801,4.228,7.111,7.466,7.074
	c2.951,0,5.329-1.457,6.575-3.945h2.737c-0.886,2.061-2.237,3.623-3.875,4.656c-1.598,1.028-3.484,1.563-5.437,1.563
	c-6.652,0-10.097-5.298-10.097-10.06c0-5.619,4.333-10.132,10.058-10.132c2.703,0,5.191,0.959,7.004,2.701
	c2.205,2.135,3.273,5.081,2.988,8.142H83.856z"/>
<path fill-rule="evenodd" clip-rule="evenodd" fill="#84BC30" d="M103.407,7.183h2.49c0,1.067,0,2.135-0.039,3.412
	c1.105-2.486,3.698-4.018,7.112-3.944c5.939,0.07,8.034,4.122,8.034,8.778v10.878h-2.593V15.964c0-4.124-1.848-6.936-6.152-6.861
	c-3.945,0.034-6.22,2.417-6.22,6.397v10.807h-2.632V7.183z"/>
<polygon fill-rule="evenodd" clip-rule="evenodd" fill="#84BC30" points="124.525,9.28 120.756,9.28 120.756,7.183 124.525,7.183 
	124.525,0 127.119,0 127.119,7.183 131.314,7.183 131.314,9.28 127.119,9.28 127.119,26.307 124.525,26.307 "/>
<polygon fill-rule="evenodd" clip-rule="evenodd" fill="#95C243" points="9.791,44.48 8.696,44.48 6.79,38.601 4.916,44.48 
	3.835,44.48 1.03,36.411 2.201,36.411 4.42,43.056 6.355,37.131 7.271,37.131 9.22,43.056 11.425,36.411 12.581,36.411 "/>
<path fill-rule="evenodd" clip-rule="evenodd" fill="#95C243" d="M16.99,44.706c-2.805,0-4.259-2.235-4.259-4.245
	c0-2.37,1.83-4.275,4.245-4.275c1.139,0,2.189,0.405,2.955,1.141c0.929,0.899,1.379,2.145,1.26,3.435h-7.35
	c0.059,2.009,1.757,2.985,3.117,2.985c0.011,0,0.021-0.001,0.032-0.001c1.245,0,2.25-0.614,2.775-1.664h1.155
	c-0.375,0.869-0.945,1.529-1.635,1.965C18.611,44.48,17.816,44.706,16.99,44.706L16.99,44.706z M17.07,37.13
	c-0.026,0-0.053,0.001-0.08,0.001c-1.739,0-3.029,1.274-3.134,2.746h6.24C20.022,38.488,18.699,37.13,17.07,37.13z"/>
<path fill-rule="evenodd" clip-rule="evenodd" fill="#95C243" d="M26.605,44.706c-1.515,0-2.7-0.735-3.3-1.891v1.665H22.24v-11.1
	h1.11v3.03v1.619c0.676-1.14,1.891-1.829,3.285-1.845c2.295,0,4.156,1.726,4.156,4.245C30.791,42.86,29.05,44.706,26.605,44.706
	L26.605,44.706z M26.485,37.206c-1.86,0-3.195,1.439-3.195,3.225c0,1.755,1.275,3.24,3.149,3.24c2.146,0,3.241-1.665,3.241-3.226
	v-0.015C29.68,38.586,28.285,37.206,26.485,37.206z"/>
<path fill-rule="evenodd" clip-rule="evenodd" fill="#95C243" d="M40.435,44.706c-2.58,0-4.17-2.011-4.17-4.275
	c0-2.4,1.741-4.245,4.155-4.245c1.77,0,2.94,1.021,3.3,1.86v-1.71v-2.955h1.109v11.1h-1.064v-1.665
	C43.195,43.881,42.114,44.706,40.435,44.706L40.435,44.706z M40.585,37.206c-1.86,0-3.226,1.409-3.226,3.225v0.015
	c0.016,1.62,1.141,3.226,3.241,3.226c0.899,0,1.725-0.36,2.295-0.945c0.585-0.6,0.93-1.425,0.899-2.325
	c0-0.915-0.344-1.694-0.93-2.265C42.294,37.551,41.485,37.206,40.585,37.206z"/>
<path fill-rule="evenodd" clip-rule="evenodd" fill="#95C243" d="M50.11,44.706c-2.805,0-4.26-2.235-4.26-4.245
	c0-2.37,1.83-4.275,4.245-4.275c1.139,0,2.189,0.405,2.955,1.141c0.93,0.899,1.38,2.145,1.26,3.435h-7.35
	c0.059,2.009,1.757,2.985,3.117,2.985c0.011,0,0.021-0.001,0.033-0.001c1.245,0,2.25-0.614,2.775-1.664h1.154
	c-0.375,0.869-0.944,1.529-1.635,1.965C51.73,44.48,50.935,44.706,50.11,44.706L50.11,44.706z M50.189,37.13
	c-0.026,0-0.053,0.001-0.079,0.001c-1.739,0-3.029,1.274-3.135,2.746h6.24C53.141,38.488,51.818,37.13,50.189,37.13z"/>
<polygon fill-rule="evenodd" clip-rule="evenodd" fill="#95C243" points="58.885,44.48 57.73,44.48 54.55,36.411 55.72,36.411 
	58.314,43.115 60.895,36.411 62.064,36.411 "/>
<path fill-rule="evenodd" clip-rule="evenodd" fill="#95C243" d="M66.445,44.706c-2.805,0-4.26-2.235-4.26-4.245
	c0-2.37,1.83-4.275,4.246-4.275c1.139,0,2.189,0.405,2.955,1.141c0.93,0.899,1.379,2.145,1.26,3.435h-7.35
	c0.059,2.009,1.758,2.985,3.117,2.985c0.011,0,0.021-0.001,0.032-0.001c1.246,0,2.25-0.614,2.775-1.664h1.154
	c-0.375,0.869-0.943,1.529-1.635,1.965C68.065,44.48,67.27,44.706,66.445,44.706L66.445,44.706z M66.524,37.13
	c-0.026,0-0.053,0.001-0.08,0.001c-1.739,0-3.029,1.274-3.134,2.746h6.239C69.477,38.488,68.153,37.13,66.524,37.13z"/>
<rect x="72.114" y="33.381" fill-rule="evenodd" clip-rule="evenodd" fill="#95C243" width="1.11" height="11.1"/>
<path fill-rule="evenodd" clip-rule="evenodd" fill="#95C243" d="M78.925,44.69c-2.596,0-4.276-1.979-4.276-4.245l0-0.015
	c0-2.25,1.68-4.245,4.275-4.245c2.609,0,4.289,1.995,4.289,4.26C83.214,42.711,81.534,44.69,78.925,44.69L78.925,44.69z
	 M78.925,37.221c-1.785,0-3.18,1.38-3.18,3.225v0.016c0,1.83,1.395,3.21,3.18,3.21c1.801,0,3.179-1.38,3.179-3.226
	C82.104,38.601,80.726,37.221,78.925,37.221z"/>
<path fill-rule="evenodd" clip-rule="evenodd" fill="#95C243" d="M85.733,47.54h-1.109V36.411h1.051v1.68
	c0.66-1.17,1.83-1.905,3.375-1.905c2.714,0,4.138,2.205,4.138,4.29c0,2.25-1.634,4.23-4.138,4.23c-1.786,0-2.942-1.035-3.317-1.876
	l0,1.65V47.54L85.733,47.54z M88.839,37.206c-0.9,0-1.696,0.359-2.279,0.944c-0.555,0.585-0.9,1.396-0.9,2.311
	c0,0.899,0.345,1.71,0.929,2.295c0.57,0.57,1.381,0.915,2.282,0.915c1.814,0,3.209-1.38,3.209-3.226v-0.015
	C92.079,38.916,91.014,37.206,88.839,37.206z"/>
<path fill-rule="evenodd" clip-rule="evenodd" fill="#95C243" d="M106.825,44.48h-1.111v-4.439c0-0.855-0.135-1.62-0.6-2.146
	c-0.33-0.42-0.84-0.675-1.605-0.675c-0.705,0-1.395,0.285-1.77,0.84c-0.404,0.57-0.48,1.021-0.48,1.936v4.484h-1.11v-4.484
	c0.032-0.9-0.105-1.426-0.419-1.92c-0.375-0.525-0.945-0.841-1.77-0.855c-0.029-0.001-0.057-0.001-0.085-0.001
	c-0.712,0-1.309,0.364-1.626,0.826c-0.344,0.465-0.539,1.08-0.539,1.935v4.5h-1.109v-8.069h1.049v1.274
	c0.509-1.02,1.635-1.5,2.55-1.5c0.84,0,1.635,0.271,2.205,0.916c0.209,0.209,0.479,0.749,0.526,0.839
	c0.119-0.225,0.283-0.54,0.584-0.854c0.525-0.555,1.32-0.9,2.22-0.9c0.825,0,1.619,0.24,2.174,0.811
	c0.705,0.705,0.916,1.574,0.916,3V44.48z"/>
<path fill-rule="evenodd" clip-rule="evenodd" fill="#95C243" d="M112.284,44.706c-2.805,0-4.26-2.235-4.26-4.245
	c0-2.37,1.83-4.275,4.245-4.275c1.14,0,2.189,0.405,2.956,1.141c0.929,0.899,1.38,2.145,1.259,3.435h-7.349
	c0.06,2.009,1.758,2.985,3.118,2.985c0.011,0,0.021-0.001,0.032-0.001c1.244,0,2.25-0.614,2.776-1.664h1.154
	c-0.375,0.869-0.945,1.529-1.635,1.965C113.903,44.48,113.108,44.706,112.284,44.706L112.284,44.706z M112.363,37.13
	c-0.026,0-0.052,0.001-0.079,0.001c-1.74,0-3.029,1.274-3.135,2.746h6.241C115.315,38.488,113.991,37.13,112.363,37.13z"/>
<path fill-rule="evenodd" clip-rule="evenodd" fill="#95C243" d="M125.095,44.48h-1.096v-4.365c0-1.718-0.76-2.895-2.528-2.895
	c-0.022,0-0.045,0-0.068,0c-1.664,0.015-2.625,1.021-2.625,2.7v4.56h-1.109v-8.069h1.051c0,0.449,0,0.899-0.016,1.439
	c0.455-1.026,1.513-1.666,2.906-1.666c0.031,0,0.063,0.001,0.094,0.001c2.505,0.03,3.391,1.74,3.391,3.705V44.48z"/>
<polygon fill-rule="evenodd" clip-rule="evenodd" fill="#95C243" points="128.515,44.48 127.419,44.48 127.419,37.297 
	125.829,37.297 125.829,36.411 127.419,36.411 127.419,33.381 128.515,33.381 128.515,36.411 130.284,36.411 130.284,37.297 
	128.515,37.297 "/>
</svg>
