<?xml version="1.0" encoding="UTF-8" standalone="no"?><!DOCTYPE svg PUBLIC "-//W3C//DTD SVG 1.1//EN" "http://www.w3.org/Graphics/SVG/1.1/DTD/svg11.dtd"><svg width="100%" height="100%" viewBox="0 0 120 120" version="1.1" xmlns="http://www.w3.org/2000/svg" xmlns:xlink="http://www.w3.org/1999/xlink" xml:space="preserve" xmlns:serif="http://www.serif.com/" style="fill-rule:evenodd;clip-rule:evenodd;stroke-linejoin:round;stroke-miterlimit:1.41421;"><rect id="mobile-development" x="0" y="0" width="120" height="120" style="fill:none;"/><clipPath id="_clip1"><rect x="0" y="0" width="120" height="120"/></clipPath><g clip-path="url(#_clip1)"><path id="path3861" d="M28.056,60l0,-60l63.888,0l0,120l-31.944,0l-31.944,0l0,-60Zm60,46.944l0,-9.166l-28.056,0l-28.056,0l0,18.333l56.112,0l0,-9.167Zm-29.723,5.304c-6.36,-2.631 -3.677,-12.338 3.004,-10.87c2.057,0.451 4.496,3.208 4.496,5.081c0,2.241 -1.603,4.682 -3.63,5.529c-2.126,0.889 -2.318,0.902 -3.87,0.26l0,0Zm3.427,-4.791c0.446,-1.162 -1.037,-2.593 -2.217,-2.14c-0.929,0.356 -1.265,1.942 -0.562,2.646c0.693,0.692 2.441,0.374 2.779,-0.506Zm26.296,-51.068l0,-37.5l-28.056,0l-28.056,0l0,37.13c0,20.421 0.167,37.296 0.371,37.5c0.204,0.203 12.829,0.37 28.055,0.37l27.686,0l0,-37.5Zm0,-46.945l0,-5.555l-28.056,0l-28.056,0l0,11.111l56.112,0l0,-5.556Zm-35.556,-0.277l0,-1.945l15,0l0,3.889l-7.5,0l-7.5,0l0,-1.944Z" style="fill:url(#_Linear2);fill-rule:nonzero;"/></g><defs><linearGradient id="_Linear2" x1="0" y1="0" x2="1" y2="0" gradientUnits="userSpaceOnUse" gradientTransform="matrix(7.34788e-15,120,-120,7.34788e-15,60,0)"><stop offset="0" style="stop-color:#006a72;stop-opacity:1"/><stop offset="1" style="stop-color:#003b3f;stop-opacity:1"/></linearGradient></defs></svg>