<?xml version="1.0" encoding="UTF-8" standalone="no"?><!DOCTYPE svg PUBLIC "-//W3C//DTD SVG 1.1//EN" "http://www.w3.org/Graphics/SVG/1.1/DTD/svg11.dtd"><svg width="100%" height="100%" viewBox="0 0 120 120" version="1.1" xmlns="http://www.w3.org/2000/svg" xmlns:xlink="http://www.w3.org/1999/xlink" xml:space="preserve" xmlns:serif="http://www.serif.com/" style="fill-rule:evenodd;clip-rule:evenodd;stroke-linejoin:round;stroke-miterlimit:1.41421;"><rect id="web-development" x="0" y="0" width="120" height="120" style="fill:none;"/><clipPath id="_clip1"><rect x="0" y="0" width="120" height="120"/></clipPath><g clip-path="url(#_clip1)"><path id="path3861" d="M0,91.944l0,-7.5l12.778,0l0,-31.944l0,-31.944l94.444,0l0,63.888l12.778,0l0,15l-60,0l-60,0l0,-7.5Zm116.111,0l0,-3.611l-56.111,0l-56.111,0l0,7.223l112.222,0l0,-3.612Zm-13.333,-37.5l0,-30l-42.778,0l-42.778,0l0,60l85.556,0l0,-30Zm-46.44,-22.988c-0.173,-0.451 -0.232,-1.4 -0.132,-2.11c0.17,-1.199 0.439,-1.29 3.794,-1.29l3.611,0l0,3.888l-3.479,0.166c-2.665,0.127 -3.553,-0.026 -3.794,-0.654l0,0Z" style="fill:url(#_Linear2);fill-rule:nonzero;"/></g><defs><linearGradient id="_Linear2" x1="0" y1="0" x2="1" y2="0" gradientUnits="userSpaceOnUse" gradientTransform="matrix(4.83055e-15,78.8889,-78.8889,4.83055e-15,60,20.5556)"><stop offset="0" style="stop-color:#b10000;stop-opacity:1"/><stop offset="1" style="stop-color:#650000;stop-opacity:1"/></linearGradient></defs></svg>